<svg width="36" height="34" viewBox="0 0 36 34" fill="none" xmlns="http://www.w3.org/2000/svg">
<path d="M13.9909 0.980449H34.746C35.4064 0.980449 35.7838 1.31065 35.7838 2.01821V6.59377C35.7838 7.25416 35.4064 7.63153 34.746 7.63153H14.0381C9.17948 7.63153 7.90587 8.99948 7.90587 13.9524V14.1883H34.463C35.1234 14.1883 35.5008 14.5185 35.5008 15.226V19.4242C35.5008 20.1318 35.1234 20.462 34.463 20.462H7.90587V21.028C7.90587 25.981 9.17948 27.3489 14.0381 27.3489H34.746C35.4064 27.3489 35.7838 27.7263 35.7838 28.3867V32.9622C35.7838 33.6698 35.4064 34 34.746 34H13.9909C4.41523 34 0.783076 30.5565 0.783076 21.5469V13.4335C0.783076 4.42392 4.41523 0.980449 13.9909 0.980449Z" fill="#5695F5"/>
</svg>
